<svg xmlns="http://www.w3.org/2000/svg" viewBox="0 0 500 500"><g id="freepik--background-complete--inject-11"><rect y="382.4" width="500" height="0.25" style="fill:#ebebeb"></rect><rect x="416.78" y="398.49" width="33.12" height="0.25" style="fill:#ebebeb"></rect><rect x="322.53" y="401.21" width="8.69" height="0.25" style="fill:#ebebeb"></rect><rect x="396.59" y="389.21" width="19.19" height="0.25" style="fill:#ebebeb"></rect><rect x="52.46" y="390.89" width="43.19" height="0.25" style="fill:#ebebeb"></rect><rect x="104.56" y="390.89" width="6.33" height="0.25" style="fill:#ebebeb"></rect><rect x="131.47" y="395.11" width="93.68" height="0.25" style="fill:#ebebeb"></rect><path d="M237,337.8H43.91a5.71,5.71,0,0,1-5.7-5.71V60.66A5.71,5.71,0,0,1,43.91,55H237a5.71,5.71,0,0,1,5.71,5.71V332.09A5.71,5.71,0,0,1,237,337.8ZM43.91,55.2a5.46,5.46,0,0,0-5.45,5.46V332.09a5.46,5.46,0,0,0,5.45,5.46H237a5.47,5.47,0,0,0,5.46-5.46V60.66A5.47,5.47,0,0,0,237,55.2Z" style="fill:#ebebeb"></path><path d="M453.31,337.8H260.21a5.72,5.72,0,0,1-5.71-5.71V60.66A5.72,5.72,0,0,1,260.21,55h193.1A5.71,5.71,0,0,1,459,60.66V332.09A5.71,5.71,0,0,1,453.31,337.8ZM260.21,55.2a5.47,5.47,0,0,0-5.46,5.46V332.09a5.47,5.47,0,0,0,5.46,5.46h193.1a5.47,5.47,0,0,0,5.46-5.46V60.66a5.47,5.47,0,0,0-5.46-5.46Z" style="fill:#ebebeb"></path><path d="M75.66,290.59h71.2a12.52,12.52,0,0,1,12.52,12.52v64a12.52,12.52,0,0,1-12.52,12.52H75.66a0,0,0,0,1,0,0v-89a0,0,0,0,1,0,0Z" style="fill:#f0f0f0"></path><rect x="62.55" y="290.59" width="26.22" height="89" rx="12.52" style="fill:#f5f5f5"></rect><rect x="85.19" y="323.42" width="92.93" height="56.17" transform="translate(263.31 703.01) rotate(180)" style="fill:#f0f0f0"></rect><path d="M77.56,382.4H245.05a2.57,2.57,0,0,0,2.56-2.57v-.24H146.9L75,379.83A2.57,2.57,0,0,0,77.56,382.4Z" style="fill:#e0e0e0"></path><path d="M150.92,253.67h86.46a15.73,15.73,0,0,1,15.93,17.46l-5.7,65H126.23l5.69-65A19.44,19.44,0,0,1,150.92,253.67Z" style="fill:#e0e0e0"></path><path d="M137.26,253.67h88.15a15,15,0,0,1,15.16,16.62l-5.77,65.83H113.41l5.77-65.83A18.5,18.5,0,0,1,137.26,253.67Z" style="fill:#f5f5f5"></path><path d="M92.64,318.29h73.61a7.88,7.88,0,0,1,7.88,7.88v7.11a7.88,7.88,0,0,1-7.88,7.89H92.64A11.44,11.44,0,0,1,81.2,329.73h0A11.44,11.44,0,0,1,92.64,318.29Z" style="fill:#e0e0e0"></path><path d="M178.53,290.59h71.2a12.52,12.52,0,0,1,12.52,12.52v64a12.52,12.52,0,0,1-12.52,12.52h-71.2a0,0,0,0,1,0,0v-89a0,0,0,0,1,0,0Z" style="fill:#f0f0f0"></path><rect x="165.42" y="290.59" width="26.22" height="89" rx="12.52" style="fill:#f5f5f5"></rect><rect x="306.56" y="241.67" width="68.45" height="140.73" style="fill:#f0f0f0"></rect><rect x="256.6" y="311.24" width="118.81" height="1.58" transform="translate(628.04 -3.97) rotate(90)" style="fill:#e6e6e6"></rect><rect x="315.22" y="252.63" width="49.7" height="2" style="fill:#e6e6e6"></rect><rect x="376.59" y="241.67" width="68.45" height="140.73" style="fill:#f0f0f0"></rect><rect x="445.05" y="241.67" width="9.06" height="140.73" transform="translate(899.16 624.07) rotate(180)" style="fill:#e0e0e0"></rect><rect x="326.63" y="311.24" width="118.81" height="1.58" transform="translate(698.07 -74) rotate(90)" style="fill:#e6e6e6"></rect><rect x="306.24" y="312.04" width="139.13" height="1.58" transform="translate(688.64 -62.97) rotate(90)" style="fill:#e6e6e6"></rect><rect x="385.25" y="252.63" width="49.7" height="2" style="fill:#e6e6e6"></rect><rect x="368.61" y="272.8" width="3.4" height="31.1" style="fill:#e0e0e0"></rect><rect x="379.59" y="272.8" width="3.4" height="31.1" style="fill:#e0e0e0"></rect><rect x="77.09" y="94.92" width="349.02" height="124.49" style="fill:#e0e0e0"></rect><rect x="73.89" y="94.92" width="349.02" height="124.49" style="fill:#f0f0f0"></rect><rect x="196.63" y="-6.88" width="103.55" height="328.08" transform="translate(405.56 -91.24) rotate(90)" style="fill:#fafafa"></rect><polygon points="137.62 208.94 159.36 105.39 207.35 105.39 185.61 208.94 137.62 208.94" style="fill:#fff"></polygon><polygon points="205.86 208.94 227.6 105.39 251.6 105.39 229.85 208.94 205.86 208.94" style="fill:#fff"></polygon><polygon points="352.38 208.94 374.12 105.39 398.12 105.39 376.37 208.94 352.38 208.94" style="fill:#fff"></polygon></g><g id="freepik--Shadow--inject-11"><ellipse id="freepik--path--inject-11" cx="250" cy="416.24" rx="193.89" ry="11.32" style="fill:#f5f5f5"></ellipse></g><g id="freepik--Device--inject-11"><path d="M344.27,386.41H212.61a17.65,17.65,0,0,1-17.77-18.88l16-273.65a20.34,20.34,0,0,1,20-18.88H362.53A17.65,17.65,0,0,1,380.3,93.88L364.25,367.53A20.34,20.34,0,0,1,344.27,386.41Z" style="fill:#92E3A9"></path><path d="M344.27,386.41H212.61a17.65,17.65,0,0,1-17.77-18.88l16-273.65a20.34,20.34,0,0,1,20-18.88H362.53A17.65,17.65,0,0,1,380.3,93.88L364.25,367.53A20.34,20.34,0,0,1,344.27,386.41Z" style="fill:#fff;opacity:0.8"></path><path d="M343.49,380.93h-128A12.4,12.4,0,0,1,203,367.67L219,95.21a14.3,14.3,0,0,1,14-13.27H361a12.41,12.41,0,0,1,12.49,13.27l-16,272.46A14.29,14.29,0,0,1,343.49,380.93Z" style="fill:#92E3A9"></path><path d="M342.11,379.47h-128a12.41,12.41,0,0,1-12.49-13.27l16-272.46a14.3,14.3,0,0,1,14-13.27h128a12.41,12.41,0,0,1,12.49,13.27l-16,272.46A14.3,14.3,0,0,1,342.11,379.47Z" style="fill:#fff"></path><path d="M338.37,369.34H219a7.67,7.67,0,0,1-7.72-8.2L218,247.49a8.83,8.83,0,0,1,8.68-8.2H346a7.67,7.67,0,0,1,7.72,8.2l-6.67,113.65A8.83,8.83,0,0,1,338.37,369.34Z" style="fill:#92E3A9;opacity:0.1"></path><path d="M311.86,100.68H277.07a2.74,2.74,0,0,1-2.76-2.93h0a3.16,3.16,0,0,1,3.11-2.94H312.2A2.74,2.74,0,0,1,315,97.75h0A3.15,3.15,0,0,1,311.86,100.68Z" style="fill:#92E3A9;opacity:0.1"></path><ellipse cx="290.18" cy="173.79" rx="54.07" ry="50.99" transform="translate(-39.07 251.27) rotate(-44.16)" style="fill:#92E3A9;opacity:0.1"></ellipse><path d="M253.4,208.57a46.41,46.41,0,0,1-12.47-35l1,0a45.45,45.45,0,0,0,12.2,34.25Z" style="fill:#92E3A9"></path><path d="M339.42,174l-1-.06a47.94,47.94,0,0,0-1-13.14l1-.22A48.42,48.42,0,0,1,339.42,174Z" style="fill:#92E3A9"></path><path d="M334.52,152.1a45,45,0,0,0-25.35-23.69l.35-.94a45.89,45.89,0,0,1,25.91,24.23Z" style="fill:#92E3A9"></path><ellipse cx="290.18" cy="173.79" rx="47.12" ry="44.43" transform="translate(-39.07 251.27) rotate(-44.16)" style="fill:#92E3A9"></ellipse><path d="M285.09,180h0c2.2-.49,3.23-2.37,3.7-4.51.05-.23.09-.45.13-.67l0-.2a22.74,22.74,0,0,0,.2-2.69,8.72,8.72,0,0,1-7.86-8.54A25.73,25.73,0,0,1,284,151.15a2.81,2.81,0,0,0-1.35.56.33.33,0,0,1-.27.06.36.36,0,0,1-.22-.13.36.36,0,0,1,.07-.49,3.56,3.56,0,0,1,2.16-.72c.15-.24.29-.49.44-.72-.64,0-1.26,0-1.86,0,.66-4.62,9.55-8.5,15.61-5,2.7.54,7.16,4.4,7.16,4.4a56.89,56.89,0,0,1-.21,7.37h0c-.4,4.18-1.39,9.09-3.8,11.83a8.7,8.7,0,0,0,.64-4.45,4.66,4.66,0,0,1-2.08,1.19,12.45,12.45,0,0,1-1,1.76c-.94,4.29-1.61,10-.18,13.29,1.29.08,2.54.2,3.73.33l.29.05a21.34,21.34,0,0,0,2.26-1.53c9-7-.55-15.22,1.7-22.75s.35-10.39-5.8-10.63c2.55-4.07-13.65-10.57-20.77,2.06-6.45,11.45-8.53,17.17-6.21,26.12a11.75,11.75,0,0,0,5.51,6.89,10.54,10.54,0,0,1,1.38-.28C282.47,180.24,283.79,180.1,285.09,180Z" style="fill:#263238"></path><path d="M271.1,197.6a22,22,0,0,1-1-2c-.68,2-1.35,4-2,6-.62,1.8-1.21,3.6-1.83,5.32l-.93,2.43-.4,1c-.14.27,0,.11,0,.19a10.44,10.44,0,0,1-1.41,1.36c-.11.11-.25.21-.37.31a42.5,42.5,0,0,0,8.87,4.57c.07-4.57.63-9.32,1.23-10.59C269.66,203.69,270.2,201,271.1,197.6Z" style="fill:#ffc3bd"></path><path d="M274.6,184.11l-.25.35c.08-.12.17-.23.26-.34Z" style="fill:#263238"></path><path d="M272.29,190.81a10.66,10.66,0,0,1,1.91-6.16,48.27,48.27,0,0,0-4.7,9.6s.18.53.56,1.36a22,22,0,0,0,1,2A25.8,25.8,0,0,0,272.29,190.81Z" style="fill:#263238"></path><path d="M307.15,205.32a42.1,42.1,0,0,1-3.15-5.47c-.3.16-.61.32-.93.46-3-3.17-5.56-5.73-5.56-5.73-3.74-7.8-1.43-12.24,5.66-14.05a9.32,9.32,0,0,1,3.1,1.25,7.38,7.38,0,0,0-3.14-1.26l-.29-.05c-1.19-.13-2.44-.25-3.73-.33.28.73-6.14,10-10.17,11.47-1.65-4.16-6.28-4.44-6.28-4.44s-4.32-.89-5.66,1.83c.88-5.62,6.29-8.58,8.09-9-1.3.11-2.62.25-3.89.41a10.54,10.54,0,0,0-1.38.28,10.05,10.05,0,0,0-5.21,3.44c-.09.11-.18.22-.26.34l-.15.19a10.66,10.66,0,0,0-1.91,6.16,25.8,25.8,0,0,1-1.19,6.79c-.9,3.36-1.44,6.09,2.09,8.59-.6,1.27-1.16,6-1.23,10.59a44.26,44.26,0,0,0,15.53,2.76,47.32,47.32,0,0,0,19.66-4.31,103.13,103.13,0,0,1,.09-11.17h0C307.21,204.47,307.17,204.91,307.15,205.32Z" style="fill:#263238"></path><path d="M282.66,187.17s4.63.28,6.28,4.44c4-1.52,10.45-10.74,10.17-11.47C299.11,180.14,290,184.56,282.66,187.17Z" style="fill:#fff"></path><path d="M285.11,180h0c-1.8.43-7.21,3.39-8.09,9,1.34-2.72,5.66-1.83,5.66-1.83C281.28,181.91,285.11,180,285.11,180Z" style="fill:#fff"></path><path d="M288.94,174.81l0-.2Z" style="fill:#ffc3bd"></path><path d="M299.29,166.85a12.18,12.18,0,0,1-3.24,3.2,10.74,10.74,0,0,1-1.7,1,11.51,11.51,0,0,1-5.57,4.63l0-.17c-.47,2.14-1.5,4-3.7,4.51,0,0-3.83,1.92-2.45,7.18,7.35-2.61,16.45-7,16.45-7C297.68,176.86,298.35,171.14,299.29,166.85Z" style="fill:#ffc3bd"></path><path d="M288.81,175.48c.05-.23.09-.45.13-.67C288.9,175,288.86,175.25,288.81,175.48Z" style="fill:#263238"></path><path d="M288.81,175.48c.05-.23.09-.45.13-.67C288.9,175,288.86,175.25,288.81,175.48Z" style="opacity:0.2"></path><path d="M289.17,171.92a22.74,22.74,0,0,1-.2,2.69,20.93,20.93,0,0,0,.2-2.69Z" style="fill:#263238"></path><path d="M289.17,171.92a22.74,22.74,0,0,1-.2,2.69,20.93,20.93,0,0,0,.2-2.69Z" style="opacity:0.2"></path><path d="M294.35,171a9.69,9.69,0,0,1-5.18.9,20.93,20.93,0,0,1-.2,2.69l0,.2c0,.22-.08.44-.13.67l0,.17A11.51,11.51,0,0,0,294.35,171Z" style="fill:#ffc3bd"></path><path d="M294.35,171a9.69,9.69,0,0,1-5.18.9,20.93,20.93,0,0,1-.2,2.69l0,.2c0,.22-.08.44-.13.67l0,.17A11.51,11.51,0,0,0,294.35,171Z" style="opacity:0.2"></path><path d="M294.35,171a10.74,10.74,0,0,0,1.7-1,12.18,12.18,0,0,0,3.24-3.2,12.45,12.45,0,0,0,1-1.76c-.19,0-.38.1-.56.12-1.67.15-2.14-1.73-1.38-3.41a6.58,6.58,0,0,1,1-1.57,6.05,6.05,0,0,1,.3-4.32c-1.52-3.12-3.13-6-3.28-8.09a42.67,42.67,0,0,1-11.54,1.89c-.15.23-.29.48-.44.72a3.32,3.32,0,0,1,1,.15.34.34,0,0,1,.2.44.35.35,0,0,1-.44.21,2.52,2.52,0,0,0-1.11-.08,25.73,25.73,0,0,0-2.67,12.23,8.72,8.72,0,0,0,7.86,8.54h0A9.69,9.69,0,0,0,294.35,171Zm-2.23-19.64a3.42,3.42,0,0,1,2.48,2,.36.36,0,0,1-.16.47.34.34,0,0,1-.26,0,.3.3,0,0,1-.2-.18,2.74,2.74,0,0,0-2-1.57.36.36,0,0,1-.3-.39A.35.35,0,0,1,292.12,151.38Zm-.35,4.94h0a1,1,0,0,1,.35,1.11c-.11.58-.51,1-.89.91s-.6-.6-.49-1.18a1.35,1.35,0,0,1,.43-.76,1.51,1.51,0,0,1-.69-.76Zm-8.2-.42a1.34,1.34,0,0,1,.42-.75,1.57,1.57,0,0,1-.68-.77l1.31.67h0a1.05,1.05,0,0,1,.35,1.11c-.12.58-.51,1-.89.92S283.46,156.48,283.57,155.9Zm2.32,4.86a2.55,2.55,0,0,1-2-.79,16.08,16.08,0,0,0,2.78-3.3Zm1.93,2.68a.18.18,0,0,1-.13-.21.17.17,0,0,1,.2-.13A4.7,4.7,0,0,0,292,162a.17.17,0,1,1,.25.24,4.85,4.85,0,0,1-3.42,1.28A7.22,7.22,0,0,1,287.82,163.44Z" style="fill:#ffc3bd"></path><polygon points="305.51 156.52 305.51 156.52 305.51 156.52 305.51 156.52" style="fill:#263238"></polygon><path d="M301,159c-.42-1-.9-2.07-1.39-3.07a6.05,6.05,0,0,0-.3,4.32A4.05,4.05,0,0,1,301,159Z" style="fill:#263238"></path><path d="M291.15,156.41a1.35,1.35,0,0,0-.43.76c-.11.58.11,1.11.49,1.18s.78-.33.89-.91a1,1,0,0,0-.35-1.11A.61.61,0,0,1,291.15,156.41Z" style="fill:#263238"></path><path d="M285,156.17a1.05,1.05,0,0,0-.35-1.11.66.66,0,0,1-.61.09,1.34,1.34,0,0,0-.42.75c-.11.58.11,1.11.49,1.19S284.83,156.75,285,156.17Z" style="fill:#263238"></path><path d="M284.6,155.06h0l-1.31-.67a1.57,1.57,0,0,0,.68.77A.66.66,0,0,0,284.6,155.06Z" style="fill:#263238"></path><path d="M283.9,160a2.55,2.55,0,0,0,2,.79l.79-4.09A16.08,16.08,0,0,1,283.9,160Z" style="fill:#ed847e"></path><path d="M292.23,162a.18.18,0,0,0-.25,0,4.7,4.7,0,0,1-4.09,1.08.17.17,0,0,0-.2.13.18.18,0,0,0,.13.21,7.22,7.22,0,0,0,1,.1,4.85,4.85,0,0,0,3.42-1.28A.18.18,0,0,0,292.23,162Z" style="fill:#263238"></path><path d="M301,159a4.05,4.05,0,0,0-1.69,1.25,6.58,6.58,0,0,0-1,1.57c-.76,1.68-.29,3.56,1.38,3.41.18,0,.37-.08.56-.12a4.66,4.66,0,0,0,2.08-1.19A18.12,18.12,0,0,0,301,159Z" style="fill:#ffc3bd"></path><path d="M296.56,146.32c.06-1.44.88-1.79,2-1.57-6.06-3.54-14.95.34-15.61,5,.6,0,1.22,0,1.86,0a42.67,42.67,0,0,0,11.54-1.89A3.19,3.19,0,0,1,296.56,146.32Z" style="fill:#263238"></path><path d="M296.56,146.32a3.19,3.19,0,0,0-.21,1.5c.15,2.12,1.76,5,3.28,8.09.49,1,1,2,1.39,3.07a18.12,18.12,0,0,1,1.33,4.92,8.7,8.7,0,0,1-.64,4.45c2.41-2.74,3.4-7.65,3.8-11.83h0a56.89,56.89,0,0,0,.21-7.37s-4.46-3.86-7.16-4.4C297.44,144.53,296.62,144.88,296.56,146.32Z" style="fill:#263238"></path><path d="M292,152.07a2.74,2.74,0,0,1,2,1.57.3.3,0,0,0,.2.18.34.34,0,0,0,.26,0,.36.36,0,0,0,.16-.47,3.42,3.42,0,0,0-2.48-2,.35.35,0,0,0-.39.3A.36.36,0,0,0,292,152.07Z" style="fill:#263238"></path><path d="M285.09,151.23a.35.35,0,0,0,.44-.21.34.34,0,0,0-.2-.44,3.32,3.32,0,0,0-1-.15,3.56,3.56,0,0,0-2.16.72.36.36,0,0,0-.07.49.36.36,0,0,0,.22.13.33.33,0,0,0,.27-.06,2.81,2.81,0,0,1,1.35-.56A2.52,2.52,0,0,1,285.09,151.23Z" style="fill:#263238"></path><path d="M291.15,156.41a.61.61,0,0,0,.6-.08h0l-1.31-.67A1.51,1.51,0,0,0,291.15,156.41Z" style="fill:#263238"></path><path d="M307.15,205.32c0-.41.06-.85.08-1.27-.56-.89-1.13-1.79-1.72-2.68l-1.15-1.71-.36.19A42.1,42.1,0,0,0,307.15,205.32Z" style="fill:#263238"></path><path d="M307.15,205.32c0-.41.06-.85.08-1.27-.56-.89-1.13-1.79-1.72-2.68l-1.15-1.71-.36.19A42.1,42.1,0,0,0,307.15,205.32Z" style="opacity:0.2"></path><path d="M310.12,213.6l0,.16a49.61,49.61,0,0,0,10.92-8,43.2,43.2,0,0,0-1.92-4.73,66.63,66.63,0,0,0-3.23-6.11c-1-1.72-2.06-3.36-3.15-5-1,2.09-3.84,7.12-8.35,9.71l1.15,1.71c.59.89,1.16,1.79,1.72,2.68h0c.49.78,1,1.57,1.41,2.35.77,1.35,1.49,2.71,2,4l-.1.68C310.45,211.88,310.3,212.73,310.12,213.6Z" style="fill:#ffc3bd"></path><path d="M297.51,194.58s2.56,2.56,5.56,5.73c.32-.14.63-.3.93-.46l.36-.19c4.51-2.59,7.33-7.62,8.35-9.71.29-.59.44-.95.44-.95s-2.9-4.8-6.88-7.22a9.32,9.32,0,0,0-3.1-1.25C296.08,182.34,293.77,186.78,297.51,194.58Z" style="fill:#263238"></path><path d="M345.46,94.27h14.09a1.54,1.54,0,0,0,1.51-1.43h0a1.33,1.33,0,0,0-1.34-1.42h-14.1a1.54,1.54,0,0,0-1.51,1.42h0A1.33,1.33,0,0,0,345.46,94.27Z" style="fill:#92E3A9"></path><path d="M345.17,99.18h14.09a1.54,1.54,0,0,0,1.51-1.43h0a1.33,1.33,0,0,0-1.34-1.43H345.34a1.54,1.54,0,0,0-1.52,1.43h0A1.35,1.35,0,0,0,345.17,99.18Z" style="fill:#92E3A9"></path><path d="M231.18,99.18h14.09a1.55,1.55,0,0,0,1.52-1.43h0a1.34,1.34,0,0,0-1.35-1.43H231.35a1.53,1.53,0,0,0-1.51,1.43h0A1.34,1.34,0,0,0,231.18,99.18Z" style="fill:#92E3A9"></path><path d="M344.88,104.08H359a1.54,1.54,0,0,0,1.52-1.43h0a1.35,1.35,0,0,0-1.35-1.43H345.05a1.55,1.55,0,0,0-1.52,1.43h0A1.34,1.34,0,0,0,344.88,104.08Z" style="fill:#92E3A9"></path><path d="M326.36,283.49H241.12a11.54,11.54,0,0,1-11.62-12.34h0a13.3,13.3,0,0,1,13.07-12.34h85.24a11.54,11.54,0,0,1,11.62,12.34h0A13.3,13.3,0,0,1,326.36,283.49Z" style="fill:#fff"></path><path d="M324.42,316.66H239.17a11.56,11.56,0,0,1-11.62-12.35h0A13.3,13.3,0,0,1,240.62,292h85.25a11.54,11.54,0,0,1,11.62,12.34h0A13.31,13.31,0,0,1,324.42,316.66Z" style="fill:#fff"></path><path d="M322.47,349.82H237.23a11.54,11.54,0,0,1-11.62-12.34h0a13.31,13.31,0,0,1,13.07-12.35h85.24a11.55,11.55,0,0,1,11.62,12.35h0A13.3,13.3,0,0,1,322.47,349.82Z" style="fill:#fff"></path><ellipse cx="243.44" cy="271.15" rx="6.55" ry="6.17" transform="translate(-120.1 246.22) rotate(-44.16)" style="fill:#92E3A9"></ellipse><path d="M242.69,298.3l.84,3.17a.82.82,0,0,0,.8.6h3.33a.86.86,0,0,1,.43,1.6l-2.81,2a.92.92,0,0,0-.38,1l.84,3.17a.92.92,0,0,1-1.41,1l-2.58-2a.87.87,0,0,0-1,0l-2.81,2a.84.84,0,0,1-1.29-1l1.21-3.17a.84.84,0,0,0-.26-1l-2.58-2a.91.91,0,0,1,.61-1.6h3.33a.93.93,0,0,0,.87-.6L241,298.3A.88.88,0,0,1,242.69,298.3Z" style="fill:#92E3A9"></path><path d="M245,334.12l-.53,8.9A1.48,1.48,0,0,1,243,344.4h-7.79A1.29,1.29,0,0,1,234,343l.65-11.08a1.48,1.48,0,0,1,1.46-1.39h5.6Z" style="fill:#92E3A9"></path><path d="M241.66,330.55l3.37,3.57h-2.19a1.29,1.29,0,0,1-1.3-1.38l.12-2.19m-.89-2.45-.14,2.39-.13,2.19a2.39,2.39,0,0,0,.63,1.75,2.34,2.34,0,0,0,1.71.73h4.58l-1.64-1.75-3.36-3.57-1.65-1.74Z" style="fill:#fff"></path><path d="M323.5,269.84H259.71a1.88,1.88,0,0,1-1.89-2h0a2.17,2.17,0,0,1,2.13-2h63.78a1.88,1.88,0,0,1,1.89,2h0A2.16,2.16,0,0,1,323.5,269.84Z" style="fill:#92E3A9;opacity:0.2"></path><path d="M311.41,276.48H259.33a1.89,1.89,0,0,1-1.9-2h0a2.17,2.17,0,0,1,2.13-2h52.08a1.88,1.88,0,0,1,1.9,2h0A2.18,2.18,0,0,1,311.41,276.48Z" style="fill:#92E3A9;opacity:0.2"></path><path d="M321.4,305.62H303.8a2.16,2.16,0,0,0-2.13,2h0a1.88,1.88,0,0,0,1.89,2h17.6a2.16,2.16,0,0,0,2.13-2h0A1.88,1.88,0,0,0,321.4,305.62Z" style="fill:#92E3A9;opacity:0.2"></path><path d="M293.51,305.62H257.62a2.16,2.16,0,0,0-2.13,2h0a1.87,1.87,0,0,0,1.89,2h35.9a2.17,2.17,0,0,0,2.13-2h0A1.88,1.88,0,0,0,293.51,305.62Z" style="fill:#92E3A9;opacity:0.2"></path><path d="M310.09,299H258a2.16,2.16,0,0,0-2.13,2h0a1.88,1.88,0,0,0,1.89,2h52.08a2.17,2.17,0,0,0,2.13-2h0A1.88,1.88,0,0,0,310.09,299Z" style="fill:#92E3A9;opacity:0.2"></path><path d="M319.45,338.78H255.67a2.18,2.18,0,0,0-2.13,2h0a1.88,1.88,0,0,0,1.9,2h63.78a2.16,2.16,0,0,0,2.12-2h0A1.88,1.88,0,0,0,319.45,338.78Z" style="fill:#92E3A9;opacity:0.2"></path><path d="M308.14,332.15H256.06a2.17,2.17,0,0,0-2.13,2h0a1.88,1.88,0,0,0,1.89,2h52.09a2.16,2.16,0,0,0,2.12-2h0A1.88,1.88,0,0,0,308.14,332.15Z" style="fill:#92E3A9;opacity:0.2"></path></g></svg>