<?xml version="1.0" encoding="utf-8"?>
<!-- Uploaded to: SVG Repo, www.svgrepo.com, Generator: SVG Repo Mixer Tools -->
<svg width="800px" height="800px" viewBox="0 0 1024 1024" class="icon"  version="1.1" xmlns="http://www.w3.org/2000/svg"><path d="M800 64.032s-128-64-288-64-288 64-288 64c-33.344 13.344-64 44.672-64 80v496a64 64 0 0 1 64-64h576a64 64 0 0 1 64 64v-496c0-35.36-30.4-66.016-64-80z" fill="#EAEAEA" /><path d="M256 960h128v64H256zM640 960h128v64h-128z" fill="#434854" /><path d="M256 960h128v32H256zM640 960h128v32h-128z" fill="" /><path d="M864 640a64 64 0 0 0-64-64H224a64 64 0 0 0-64 64v320h704V640z" fill="#434854" /><path d="M160 864h704v32H160z" fill="#DAE2E5" /><path d="M736 576.032v-64a32 32 0 0 0-32-32H320a32 32 0 0 0-32 32v64h448z" fill="#EACA44" /><path d="M288 544.032h448v32H288z" fill="" /><path d="M352 256.032m-32 0a32 32 0 1 0 64 0 32 32 0 1 0-64 0Z" fill="" /><path d="M512 160.032m-32 0a32 32 0 1 0 64 0 32 32 0 1 0-64 0Z" fill="" /><path d="M512 352.032m-32 0a32 32 0 1 0 64 0 32 32 0 1 0-64 0Z" fill="" /><path d="M672 256.032m-32 0a32 32 0 1 0 64 0 32 32 0 1 0-64 0Z" fill="" /></svg>