<!DOCTYPE svg PUBLIC "-//W3C//DTD SVG 1.1//EN" "http://www.w3.org/Graphics/SVG/1.1/DTD/svg11.dtd">
<!-- Uploaded to: SVG Repo, www.svgrepo.com, Transformed by: SVG Repo Mixer Tools -->
<svg version="1.1" id="Layer_1" xmlns="http://www.w3.org/2000/svg" xmlns:xlink="http://www.w3.org/1999/xlink" viewBox="0 0 512.005 512.005" xml:space="preserve" width="100px" height="100px" fill="#000000">
<g id="SVGRepo_bgCarrier" stroke-width="0"/>
<g id="SVGRepo_tracerCarrier" stroke-linecap="round" stroke-linejoin="round"/>
<g id="SVGRepo_iconCarrier"> <path style="fill:#C3C6C8;" d="M426.67,41.64H126.974c-7.059,0-12.781,5.723-12.781,12.781v449.246c0,4.601,3.731,8.332,8.332,8.332 h308.596c4.601,0,8.332-3.731,8.332-8.332V54.422C439.452,47.363,433.73,41.64,426.67,41.64z"/> <path style="fill:#6DABE4;" d="M439.452,104.818H114.193V54.422c0-7.059,5.723-12.781,12.781-12.781H426.67 c7.059,0,12.781,5.723,12.781,12.781V104.818z"/> <rect x="173.984" y="41.64" style="fill:#586069;" width="16.512" height="63.175"/> <path style="opacity:0.15;enable-background:new ;" d="M144.397,484.574c-4.601,0-8.332-3.73-8.332-8.332V41.64h-9.09 c-7.059,0-12.781,5.723-12.781,12.781v449.246c0,4.601,3.731,8.332,8.332,8.332h308.596c4.601,0,8.332-3.731,8.332-8.332v-19.094 H144.397z"/> <rect x="363.146" y="41.64" style="fill:#586069;" width="16.512" height="63.175"/> <rect x="228.881" y="421.74" style="fill:#6DABE4;" width="95.88" height="90.266"/> <path style="fill:#FFB547;" d="M235.775,256.089h-65.427c-6.247,0-11.312-5.065-11.312-11.312v-31.771 c0-6.247,5.065-11.312,11.312-11.312h65.427c6.247,0,11.312,5.065,11.312,11.312v31.771 C247.088,251.024,242.024,256.089,235.775,256.089z"/> <g> <path style="fill:#6DABE4;" d="M317.869,256.089h65.427c6.247,0,11.312-5.065,11.312-11.312v-31.771 c0-6.247-5.065-11.312-11.312-11.312h-65.427c-6.247,0-11.312,5.065-11.312,11.312v31.771 C306.557,251.024,311.622,256.089,317.869,256.089z"/> <path style="fill:#6DABE4;" d="M235.775,351.035h-65.427c-6.247,0-11.312-5.065-11.312-11.312v-31.771 c0-6.247,5.065-11.312,11.312-11.312h65.427c6.247,0,11.312,5.065,11.312,11.312v31.771 C247.088,345.97,242.024,351.035,235.775,351.035z"/> <path style="fill:#6DABE4;" d="M317.869,351.035h65.427c6.247,0,11.312-5.065,11.312-11.312v-31.771 c0-6.247-5.065-11.312-11.312-11.312h-65.427c-6.247,0-11.312,5.065-11.312,11.312v31.771 C306.557,345.97,311.622,351.035,317.869,351.035z"/> </g> <g style="opacity:0.2;"> <rect x="167.016" y="377.432" width="27.52" height="16.512"/> <rect x="263.711" y="351.585" width="27.52" height="16.512"/> <rect x="143.624" y="422.763" width="27.52" height="16.512"/> <rect x="381.585" y="399.283" width="27.52" height="16.512"/> <rect x="362.596" y="437.052" width="27.52" height="16.512"/> <rect x="147.576" y="146.385" width="27.52" height="16.512"/> <rect x="383.236" y="127.748" width="27.52" height="16.512"/> <rect x="343.97" y="156.369" width="27.52" height="16.512"/> </g> <g> <path style="fill:#FFFFFF;" d="M235.777,264.345h-65.428c-10.79,0-19.568-8.779-19.568-19.568v-31.771 c0-10.79,8.778-19.568,19.568-19.568h65.428c10.79,0,19.568,8.778,19.568,19.568v31.771 C255.344,255.566,246.566,264.345,235.777,264.345z M170.348,209.95c-1.685,0-3.056,1.37-3.056,3.056v31.771 c0,1.685,1.37,3.056,3.056,3.056h65.428c1.685,0,3.056-1.372,3.056-3.056v-31.771c0-1.685-1.37-3.056-3.056-3.056H170.348z"/> <path style="fill:#FFFFFF;" d="M383.296,264.345h-65.427c-10.79,0-19.567-8.779-19.567-19.568v-31.771 c0-10.79,8.778-19.568,19.567-19.568h65.427c10.79,0,19.568,8.778,19.568,19.568v31.771 C402.865,255.566,394.086,264.345,383.296,264.345z M317.869,209.95c-1.684,0-3.055,1.37-3.055,3.056v31.771 c0,1.685,1.371,3.056,3.055,3.056h65.427c1.685,0,3.056-1.372,3.056-3.056v-31.771c0-1.685-1.371-3.056-3.056-3.056H317.869z"/> <path style="fill:#FFFFFF;" d="M235.777,359.291h-65.428c-10.79,0-19.568-8.778-19.568-19.568v-31.771 c0-10.79,8.778-19.568,19.568-19.568h65.428c10.79,0,19.568,8.779,19.568,19.568v31.771 C255.344,350.513,246.566,359.291,235.777,359.291z M170.348,304.896c-1.685,0-3.056,1.372-3.056,3.056v31.771 c0,1.685,1.37,3.056,3.056,3.056h65.428c1.685,0,3.056-1.37,3.056-3.056v-31.771c0-1.685-1.37-3.056-3.056-3.056H170.348z"/> <path style="fill:#FFFFFF;" d="M383.296,359.291h-65.427c-10.79,0-19.567-8.778-19.567-19.568v-31.771 c0-10.79,8.778-19.568,19.567-19.568h65.427c10.79,0,19.568,8.779,19.568,19.568v31.771 C402.865,350.513,394.086,359.291,383.296,359.291z M317.869,304.896c-1.684,0-3.055,1.372-3.055,3.056v31.771 c0,1.685,1.371,3.056,3.055,3.056h65.427c1.685,0,3.056-1.37,3.056-3.056v-31.771c0-1.685-1.371-3.056-3.056-3.056H317.869z"/> </g> <g> <path style="fill:#333E48;" d="M80.809,480.539c-4.56,0-8.256-3.697-8.256-8.256V41.64c0-4.56,3.697-8.256,8.256-8.256 s8.256,3.696,8.256,8.256v430.643C89.065,476.843,85.368,480.539,80.809,480.539z"/> <path style="fill:#333E48;" d="M155.834,41.64h-16.512c0-13.856-11.272-25.128-25.129-25.128 c-13.856,0-25.128,11.272-25.128,25.128H72.553C72.553,18.68,91.232,0,114.193,0S155.834,18.68,155.834,41.64z"/> <rect x="220.625" y="421.74" style="fill:#333E48;" width="16.512" height="90.266"/> <rect x="316.505" y="421.74" style="fill:#333E48;" width="16.512" height="90.266"/> </g> <path style="fill:#FF6361;" d="M337.965,421.734c2.028,0,3.603-1.774,3.364-3.787c-2.754-23.203-30.583-41.433-64.507-41.433 s-61.753,18.23-64.507,41.433c-0.239,2.013,1.336,3.787,3.364,3.787H337.965z"/> <path style="opacity:0.15;enable-background:new ;" d="M341.329,417.947c-0.245-2.067-0.698-4.093-1.329-6.072H231.499 c-2.028,0-3.603-1.773-3.364-3.787c1.101-9.276,6.22-17.754,14.124-24.594c-16.693,7.379-28.221,19.943-29.943,34.454 c-0.239,2.013,1.336,3.787,3.364,3.787h122.286C339.993,421.734,341.568,419.961,341.329,417.947z"/> <g> <rect x="80.812" y="117.533" style="fill:#333E48;" width="33.387" height="16.512"/> <rect x="80.812" y="175.072" style="fill:#333E48;" width="33.387" height="16.512"/> <rect x="80.812" y="268.475" style="fill:#333E48;" width="33.387" height="16.512"/> <rect x="80.812" y="326.003" style="fill:#333E48;" width="33.387" height="16.512"/> </g> <g> <path style="fill:#4C9462;" d="M207.563,512c0-20.946-16.981-37.927-37.927-37.927S131.709,491.054,131.709,512H207.563z"/> <path style="fill:#4C9462;" d="M346.083,512c0-20.946,16.981-37.927,37.927-37.927s37.927,16.981,37.927,37.927H346.083z"/> </g> <path style="opacity:0.15;enable-background:new ;" d="M287.303,79.98v26.102c0,2.557-2.073,4.631-4.631,4.631H259.23 c-2.557,0-4.631-2.073-4.631-4.631V79.98c0-2.557-2.073-4.63-4.63-4.63h-20.898c-2.557,0-4.631,2.073-4.631,4.63v91.624 c0,2.557,2.073,4.63,4.631,4.63h20.898c2.557,0,4.63-2.073,4.63-4.63v-26.102c0-2.557,2.073-4.631,4.631-4.631h23.442 c2.557,0,4.631,2.073,4.631,4.631v26.102c0,2.557,2.073,4.63,4.63,4.63h20.898c2.557,0,4.631-2.073,4.631-4.63V79.98 c0-2.557-2.073-4.63-4.631-4.63h-20.898C289.376,75.35,287.303,77.423,287.303,79.98z"/> <path style="fill:#333E48;" d="M293.174,74.154v26.102c0,2.557-2.073,4.631-4.631,4.631h-23.442c-2.557,0-4.631-2.073-4.631-4.631 V74.154c0-2.557-2.073-4.631-4.63-4.631h-20.898c-2.557,0-4.63,2.073-4.63,4.631v91.624c0,2.557,2.073,4.63,4.63,4.63h20.898 c2.557,0,4.63-2.073,4.63-4.63v-26.102c0-2.557,2.073-4.631,4.631-4.631h23.442c2.557,0,4.631,2.073,4.631,4.631v26.102 c0,2.557,2.073,4.63,4.631,4.63h20.898c2.557,0,4.631-2.073,4.631-4.63V74.154c0-2.557-2.073-4.631-4.631-4.631h-20.898 C295.247,69.523,293.174,71.596,293.174,74.154z"/> </g>
</svg>