<!DOCTYPE svg PUBLIC "-//W3C//DTD SVG 1.1//EN" "http://www.w3.org/Graphics/SVG/1.1/DTD/svg11.dtd">
<!-- Uploaded to: SVG Repo, www.svgrepo.com, Transformed by: SVG Repo Mixer Tools -->
<svg height="100px" width="100px" version="1.1" id="Layer_1" xmlns="http://www.w3.org/2000/svg" xmlns:xlink="http://www.w3.org/1999/xlink" viewBox="-51.2 -51.2 614.40 614.40" xml:space="preserve" fill="#000000">
<g id="SVGRepo_bgCarrier" stroke-width="0">
<path transform="translate(-51.2, -51.2), scale(19.2)" d="M16,29.066048629974063C17.851952904398914,28.560318518885037,18.58214850708375,26.302104260302894,20.02089734228493,25.03108329486568C21.05764100455744,24.115202149878854,22.361901464334128,23.58851204496313,23.32473653482525,22.5952223993728C24.307068728384134,21.581818934650254,24.810808295262696,20.240186991325658,25.71520693603287,19.156662086495626C27.087655981976596,17.512384159868205,30.684568058205606,16.571615387753624,30.06341297709941,14.521875733816579C29.360881691692544,12.203604053151334,24.440157867041112,13.908941547607057,23.45438413425332,11.696209313445973C22.29897679833648,9.102706392101913,26.34922381624671,6.001328238394056,25.126028487688075,3.4390993838412545C24.2090276677741,1.5182565670191885,21.004808604660663,2.690679403292656,18.92947904131691,2.2178846971344246C16.82531198249437,1.738520328286444,14.879571527644769,0.42556402668851956,12.72982525432234,0.6150374282288116C10.535400565347238,0.8084486765253447,7.799049895850223,1.3444831105240307,6.765627709541194,3.2899769325125146C5.55315660877667,5.572543599967027,8.462156299097378,8.665144981560413,7.243101118002688,10.944202073212512C6.083435716873259,13.112228342551923,1.334823962566602,12.000276416791294,0.8204928898760624,14.404569513480514C0.3396092710570972,16.65250907308985,4.525009454311864,17.320889080850524,5.42662667829528,19.43549724784541C6.219561355009541,21.29520677720138,4.395475422445189,23.75545734031173,5.52298074679635,25.433550507770892C6.601842098957039,27.03924568684993,9.03829018333483,26.89739204273645,10.866028388385299,27.531089035866884C12.572290246247386,28.122668839710016,14.257883100130945,29.541784795406848,16,29.066048629974063" fill="#e6e6e6" strokewidth="0"/>
</g>
<g id="SVGRepo_tracerCarrier" stroke-linecap="round" stroke-linejoin="round"/>
<g id="SVGRepo_iconCarrier"> <path style="fill:#707487;" d="M76.426,281.652l39.276,141.395c2.057,7.402,8.796,12.525,16.478,12.525h46.859l-40.458-145.645 L76.426,281.652z"/> <path style="fill:#7F8499;" d="M25.119,179.039c-9.445,0-17.102,7.656-17.102,17.102v51.307c0,9.445,7.658,17.102,17.102,17.102 h25.653v-85.511H25.119z"/> <path style="fill:#FFDC64;" d="M358.614,76.425H332.96c-9.445,0-17.102,7.656-17.102,17.102v4.007 c-28.863,13.133-128.022,55.066-250.044,71.127c-8.569,1.128-15.041,8.322-15.041,16.965v72.335c0,8.643,6.473,15.837,15.041,16.965 c122.022,16.061,221.181,57.995,250.044,71.127v4.007c0,9.445,7.658,17.102,17.102,17.102h25.653 c9.445,0,17.102-7.658,17.102-17.102V93.528C375.716,84.081,368.059,76.425,358.614,76.425z"/> <path style="fill:#FFC850;" d="M290.205,234.678c0,10.417-9.19,18.412-19.503,16.931c-44.322-6.364-115.189-15.447-204.888-19.614 c-8.569-0.399-15.041-2.937-15.041-5.988v31.953c0,8.64,6.465,15.836,15.031,16.963c104.326,13.73,191.74,46.304,232.98,63.686 c1.046,0.44,14.575,6.306,17.076,7.444V97.534c-5.801,2.639-14.559,6.476-25.653,10.998v126.145H290.205z"/> <path style="fill:#5B5D6E;" d="M118.52,325.405c-1.536-6.517,4.227-12.399,10.789-11.064c5.812,1.182,11.46,2.447,17.087,3.719 l-7.815-28.131l-62.156-8.275l39.276,141.395c2.057,7.402,8.796,12.525,16.478,12.525h12.633L118.52,325.405z"/> <path d="M358.614,68.408H332.96c-12.075,0-22.184,8.565-24.579,19.938c-19.694,9.853-116.345,55.616-243.614,72.367 c-7.147,0.941-13.284,4.825-17.252,10.308H25.119C11.268,171.022,0,182.29,0,196.141v51.307c0,13.851,11.268,25.119,25.119,25.119 h22.398c3.967,5.483,10.105,9.368,17.251,10.308c1.279,0.169,2.549,0.346,3.823,0.521l39.388,141.798 c3.009,10.831,12.961,18.396,24.203,18.396h46.829c0.009,0,0.017,0.002,0.026,0.002c0.011,0,0.02-0.002,0.031-0.002h8.524 c4.427,0,8.017-3.589,8.017-8.017c0-4.427-3.589-8.017-8.017-8.017h-2.457l-35.771-128.769 c84.108,20.495,143.984,48.934,159.018,56.455c2.394,11.373,12.504,19.938,24.579,19.938h25.653 c13.851,0,25.119-11.268,25.119-25.119V93.527C383.733,79.676,372.465,68.408,358.614,68.408z M16.033,247.448v-51.307 c0-5.01,4.076-9.086,9.086-9.086h17.637v69.478H25.119C20.109,256.533,16.033,252.458,16.033,247.448z M168.493,427.556h-36.311 c-4.066,0-7.665-2.736-8.753-6.654L85.945,285.971c15.784,2.528,31.025,5.47,45.631,8.69L168.493,427.556z M367.699,350.062 c0,5.01-4.076,9.086-9.086,9.086H332.96c-5.01,0-9.086-4.076-9.086-9.086v-0.01c0-0.018,0-0.036,0-0.055V161.939 c0-4.427-3.589-8.017-8.017-8.017c-4.427,0-8.017,3.589-8.017,8.017v175.216c-31.563-14.988-123.577-54.724-240.981-70.177 c-4.602-0.605-8.071-4.482-8.071-9.017v-72.335c0-4.535,3.47-8.411,8.071-9.017c117.404-15.452,209.418-55.189,240.981-70.176 v21.301c0,4.427,3.589,8.017,8.017,8.017c4.427,0,8.017-3.589,8.017-8.017V93.583c0-0.01,0-0.02,0-0.03v-0.026 c0-5.01,4.076-9.086,9.086-9.086h25.653c5.01,0,9.086,4.076,9.086,9.086V350.062z"/> <path d="M503.983,213.778h-85.511c-4.427,0-8.017,3.589-8.017,8.017s3.589,8.017,8.017,8.017h85.511 c4.427,0,8.017-3.589,8.017-8.017S508.411,213.778,503.983,213.778z"/> <path d="M469.781,147.967c1.054,0,2.125-0.21,3.154-0.65l8.552-3.665c4.069-1.744,5.955-6.457,4.21-10.526 c-1.744-4.07-6.457-5.954-10.526-4.21l-8.552,3.665c-4.069,1.744-5.955,6.457-4.21,10.526 C463.712,146.147,466.671,147.967,469.781,147.967z"/> <path d="M418.475,169.955c1.054,0,2.125-0.21,3.154-0.65l25.653-10.995c4.069-1.744,5.955-6.457,4.21-10.526 c-1.744-4.069-6.457-5.954-10.526-4.21l-25.653,10.995c-4.069,1.744-5.955,6.457-4.21,10.526 C412.406,168.134,415.366,169.955,418.475,169.955z"/> <path d="M481.487,299.937l-8.576-3.675c-4.069-1.746-8.782,0.141-10.526,4.21c-1.744,4.069,0.141,8.782,4.21,10.526l8.576,3.675 c1.029,0.441,2.1,0.65,3.154,0.65c3.11,0,6.069-1.821,7.372-4.861C487.442,306.394,485.558,301.681,481.487,299.937z"/> <path d="M447.271,285.273l-25.641-10.989c-4.069-1.743-8.783,0.141-10.526,4.21c-1.744,4.07,0.141,8.782,4.21,10.526l25.641,10.989 c1.029,0.441,2.1,0.65,3.154,0.65c3.11,0,6.069-1.821,7.372-4.86C453.226,291.73,451.34,287.017,447.271,285.273z"/> </g>
</svg>