<!DOCTYPE svg PUBLIC "-//W3C//DTD SVG 1.1//EN" "http://www.w3.org/Graphics/SVG/1.1/DTD/svg11.dtd">
<!-- Uploaded to: SVG Repo, www.svgrepo.com, Transformed by: SVG Repo Mixer Tools -->
<svg height="800px" width="800px" version="1.1" id="Layer_1" xmlns="http://www.w3.org/2000/svg" xmlns:xlink="http://www.w3.org/1999/xlink" viewBox="0 0 390.206 390.206" xml:space="preserve" fill="#000000" stroke="#000000">
<g id="SVGRepo_bgCarrier" stroke-width="0"/>
<g id="SVGRepo_tracerCarrier" stroke-linecap="round" stroke-linejoin="round"/>
<g id="SVGRepo_iconCarrier"> <path style="fill:#FFFFFF;" d="M357.689,96.711H32.517c-5.947,0-10.861,4.848-10.861,10.861v175.063 c0,5.947,4.848,10.861,10.861,10.861h325.172c5.948,0,10.861-4.848,10.861-10.861V107.572 C368.549,101.624,363.636,96.711,357.689,96.711z"/> <path style="fill:#79a626;" d="M54.174,239.774v-88.824c11.895,0,21.657-9.762,21.657-21.657h238.481 c0,11.895,9.762,21.657,21.657,21.657v88.372c-11.895,0-21.657,9.762-21.657,21.657H75.895 C75.895,249.535,66.133,239.774,54.174,239.774z"/> <path style="fill:#56ACE0;" d="M195.103,169.374c-9.244,0-17.325,11.895-17.325,25.988c0,14.093,8.145,25.988,17.325,25.988 c9.244,0,17.325-11.895,17.325-25.988C212.428,181.269,204.347,169.374,195.103,169.374z"/> <g> <path style="fill:#146C2E;" d="M357.689,75.055H32.517C14.61,75.055,0,89.665,0,107.572v175.063 c0,17.907,14.61,32.517,32.517,32.517h325.172c17.907,0,32.517-14.61,32.517-32.517V107.572 C390.206,89.665,375.596,75.055,357.689,75.055z M368.549,283.152c0,5.947-4.849,10.861-10.861,10.861H32.517 c-5.947,0-10.861-4.848-10.861-10.861v-175.58c0-5.947,4.848-10.861,10.861-10.861h325.172c5.948,0,10.861,4.848,10.861,10.861 V283.152z"/> <path style="fill:#146C2E;" d="M195.103,147.653c-21.657,0-39.046,21.657-39.046,47.709c0,26.57,17.325,47.709,39.046,47.709 s39.046-21.657,39.046-47.709C234.149,168.792,216.76,147.653,195.103,147.653z M195.103,221.35 c-9.244,0-17.325-11.895-17.325-25.988c0-14.093,8.145-25.988,17.325-25.988c9.244,0,17.325,11.895,17.325,25.988 C212.428,209.455,204.347,221.35,195.103,221.35z"/> <path style="fill:#146C2E;" d="M298.602,184.501h-9.762c-5.947,0-10.861,4.848-10.861,10.861c0,5.947,4.848,10.861,10.861,10.861 h9.762c5.947,0,10.861-4.848,10.861-10.861C309.463,189.414,304.549,184.501,298.602,184.501z"/> <path style="fill:#146C2E;" d="M101.366,184.501h-9.762c-5.947,0-10.861,4.848-10.861,10.861c0,5.947,4.848,10.861,10.861,10.861 h9.762c5.947,0,10.861-4.848,10.861-10.861C112.162,189.414,107.313,184.501,101.366,184.501z"/> </g> </g>
</svg>